# xmcd CD database file
#
# Track frame offsets:
#	150
#	16883
#	37010
#	58355
#	83475
#	120048
#	149394
#	166345
#	184165
#	198820
#	218064
#	265121
#
# Disc length: 3848 seconds
#
# Revision: 0
# Processed by: cddbd v1.5.2PL0 Copyright (c) Steve Scherf et al.
# Submitted via: CDex 1.70beta2
#
DISCID=9c0f060c
DTITLE=Burr&Klaiber - N°7
DYEAR=2015
DGENRE=Jazz
TTITLE0=Sundance
TTITLE1=Ain't no sunshine
TTITLE2=Des isch für mi Leba
TTITLE3=S'Büble
TTITLE4=Imagine
TTITLE5=Killing me softly
TTITLE6=Herbscht
TTITLE7=Come together
TTITLE8=I' hab Kehrwoch
TTITLE9=Red house
TTITLE10=Little wing
TTITLE11=Samba emotion
EXTD=YEAR: 2015
EXTT0=
EXTT1=
EXTT2=
EXTT3=
EXTT4=
EXTT5=
EXTT6=
EXTT7=
EXTT8=
EXTT9=
EXTT10=
EXTT11=
PLAYORDER=
